<?xml version="1.0" encoding="UTF-8" standalone="no"?>
<!DOCTYPE svg PUBLIC "-//W3C//DTD SVG 1.1//EN"
 "http://www.w3.org/Graphics/SVG/1.1/DTD/svg11.dtd">
<!-- Generated by graphviz version 14.0.1 (20251006.0113)
 -->
<!-- Pages: 1 -->
<svg width="1355pt" height="729pt"
 viewBox="0.00 0.00 1355.00 729.00" xmlns="http://www.w3.org/2000/svg" xmlns:xlink="http://www.w3.org/1999/xlink">
<g id="graph0" class="graph" transform="scale(1 1) rotate(0) translate(4 724.88)">
<polygon fill="white" stroke="none" points="-4,4 -4,-724.88 1351.09,-724.88 1351.09,4 -4,4"/>
<!-- pypistats -->
<g id="node1" class="node">
<title>pypistats</title>
<ellipse fill="none" stroke="black" cx="777.03" cy="-691.89" rx="61.7" ry="28.99"/>
<text xml:space="preserve" text-anchor="middle" x="777.03" y="-695.09" font-family="Times,serif" font-size="14.00">pypistats</text>
<text xml:space="preserve" text-anchor="middle" x="777.03" y="-678.59" font-family="Times,serif" font-size="14.00">1.11.1.dev11</text>
</g>
<!-- httpx -->
<g id="node2" class="node">
<title>httpx</title>
<ellipse fill="none" stroke="black" cx="217.03" cy="-581.41" rx="35.71" ry="28.99"/>
<text xml:space="preserve" text-anchor="middle" x="217.03" y="-584.61" font-family="Times,serif" font-size="14.00">httpx</text>
<text xml:space="preserve" text-anchor="middle" x="217.03" y="-568.11" font-family="Times,serif" font-size="14.00">0.28.1</text>
</g>
<!-- pypistats&#45;&gt;httpx -->
<g id="edge1" class="edge">
<title>pypistats&#45;&gt;httpx</title>
<path fill="none" stroke="black" d="M720.25,-679.89C609.14,-658.36 364.94,-611.06 263.07,-591.32"/>
<polygon fill="black" stroke="black" points="263.91,-587.92 253.43,-589.46 262.58,-594.8 263.91,-587.92"/>
<text xml:space="preserve" text-anchor="middle" x="550.81" y="-631.6" font-family="Times,serif" font-size="14.00">&gt;=0.19</text>
</g>
<!-- platformdirs -->
<g id="node3" class="node">
<title>platformdirs</title>
<ellipse fill="none" stroke="black" cx="516.03" cy="-581.41" rx="59.04" ry="28.99"/>
<text xml:space="preserve" text-anchor="middle" x="516.03" y="-584.61" font-family="Times,serif" font-size="14.00">platformdirs</text>
<text xml:space="preserve" text-anchor="middle" x="516.03" y="-568.11" font-family="Times,serif" font-size="14.00">4.3.7</text>
</g>
<!-- pypistats&#45;&gt;platformdirs -->
<g id="edge2" class="edge">
<title>pypistats&#45;&gt;platformdirs</title>
<path fill="none" stroke="black" d="M731.57,-671.99C686.89,-653.42 618.67,-625.07 570.98,-605.25"/>
<polygon fill="black" stroke="black" points="572.51,-602.09 561.93,-601.48 569.82,-608.55 572.51,-602.09"/>
<text xml:space="preserve" text-anchor="middle" x="671.9" y="-631.6" font-family="Times,serif" font-size="14.00">any</text>
</g>
<!-- prettytable -->
<g id="node4" class="node">
<title>prettytable</title>
<ellipse fill="none" stroke="black" cx="645.03" cy="-581.41" rx="52.15" ry="28.99"/>
<text xml:space="preserve" text-anchor="middle" x="645.03" y="-584.61" font-family="Times,serif" font-size="14.00">prettytable</text>
<text xml:space="preserve" text-anchor="middle" x="645.03" y="-568.11" font-family="Times,serif" font-size="14.00">3.16.0</text>
</g>
<!-- pypistats&#45;&gt;prettytable -->
<g id="edge3" class="edge">
<title>pypistats&#45;&gt;prettytable</title>
<path fill="none" stroke="black" d="M747.07,-666.27C727.86,-650.48 702.76,-629.85 682.27,-613.01"/>
<polygon fill="black" stroke="black" points="684.62,-610.41 674.67,-606.77 680.18,-615.82 684.62,-610.41"/>
<text xml:space="preserve" text-anchor="middle" x="739.18" y="-631.6" font-family="Times,serif" font-size="14.00">&gt;=3.12</text>
</g>
<!-- pytablewriter -->
<g id="node5" class="node">
<title>pytablewriter</title>
<ellipse fill="none" stroke="black" cx="777.03" cy="-581.41" rx="62.23" ry="28.99"/>
<text xml:space="preserve" text-anchor="middle" x="777.03" y="-584.61" font-family="Times,serif" font-size="14.00">pytablewriter</text>
<text xml:space="preserve" text-anchor="middle" x="777.03" y="-568.11" font-family="Times,serif" font-size="14.00">1.2.1</text>
</g>
<!-- pypistats&#45;&gt;pytablewriter -->
<g id="edge4" class="edge">
<title>pypistats&#45;&gt;pytablewriter</title>
<path fill="none" stroke="black" d="M777.03,-662.67C777.03,-650.34 777.03,-635.65 777.03,-622.23"/>
<polygon fill="black" stroke="black" points="780.53,-622.37 777.03,-612.37 773.53,-622.37 780.53,-622.37"/>
<text xml:space="preserve" text-anchor="middle" x="797.28" y="-631.6" font-family="Times,serif" font-size="14.00">&gt;=0.63</text>
</g>
<!-- python&#45;dateutil -->
<g id="node6" class="node">
<title>python&#45;dateutil</title>
<ellipse fill="none" stroke="black" cx="927.03" cy="-581.41" rx="69.65" ry="28.99"/>
<text xml:space="preserve" text-anchor="middle" x="927.03" y="-584.61" font-family="Times,serif" font-size="14.00">python&#45;dateutil</text>
<text xml:space="preserve" text-anchor="middle" x="927.03" y="-568.11" font-family="Times,serif" font-size="14.00">2.9.0.post0</text>
</g>
<!-- pypistats&#45;&gt;python&#45;dateutil -->
<g id="edge5" class="edge">
<title>pypistats&#45;&gt;python&#45;dateutil</title>
<path fill="none" stroke="black" d="M809.95,-667.08C831.64,-651.39 860.29,-630.67 883.82,-613.66"/>
<polygon fill="black" stroke="black" points="885.61,-616.68 891.66,-607.98 881.51,-611.01 885.61,-616.68"/>
<text xml:space="preserve" text-anchor="middle" x="870.76" y="-631.6" font-family="Times,serif" font-size="14.00">any</text>
</g>
<!-- python&#45;slugify -->
<g id="node7" class="node">
<title>python&#45;slugify</title>
<ellipse fill="none" stroke="black" cx="1082.03" cy="-581.41" rx="67.53" ry="28.99"/>
<text xml:space="preserve" text-anchor="middle" x="1082.03" y="-584.61" font-family="Times,serif" font-size="14.00">python&#45;slugify</text>
<text xml:space="preserve" text-anchor="middle" x="1082.03" y="-568.11" font-family="Times,serif" font-size="14.00">8.0.4</text>
</g>
<!-- pypistats&#45;&gt;python&#45;slugify -->
<g id="edge6" class="edge">
<title>pypistats&#45;&gt;python&#45;slugify</title>
<path fill="none" stroke="black" d="M825.8,-673.98C872.21,-657.84 943.97,-632.73 1006.03,-610.4 1010.98,-608.62 1016.1,-606.76 1021.25,-604.88"/>
<polygon fill="black" stroke="black" points="1022.17,-608.27 1030.36,-601.55 1019.77,-601.7 1022.17,-608.27"/>
<text xml:space="preserve" text-anchor="middle" x="959.33" y="-631.6" font-family="Times,serif" font-size="14.00">any</text>
</g>
<!-- termcolor -->
<g id="node8" class="node">
<title>termcolor</title>
<ellipse fill="none" stroke="black" cx="1216.03" cy="-581.41" rx="48.97" ry="28.99"/>
<text xml:space="preserve" text-anchor="middle" x="1216.03" y="-584.61" font-family="Times,serif" font-size="14.00">termcolor</text>
<text xml:space="preserve" text-anchor="middle" x="1216.03" y="-568.11" font-family="Times,serif" font-size="14.00">3.1.0</text>
</g>
<!-- pypistats&#45;&gt;termcolor -->
<g id="edge7" class="edge">
<title>pypistats&#45;&gt;termcolor</title>
<path fill="none" stroke="black" d="M836.17,-683.09C912.31,-672.01 1048.02,-648.68 1159.03,-610.4 1162.68,-609.14 1166.4,-607.7 1170.11,-606.15"/>
<polygon fill="black" stroke="black" points="1171.32,-609.44 1179.04,-602.18 1168.48,-603.04 1171.32,-609.44"/>
<text xml:space="preserve" text-anchor="middle" x="1114.99" y="-631.6" font-family="Times,serif" font-size="14.00">&gt;=2.1</text>
</g>
<!-- anyio -->
<g id="node20" class="node">
<title>anyio</title>
<ellipse fill="none" stroke="black" cx="287.03" cy="-470.92" rx="32.53" ry="28.99"/>
<text xml:space="preserve" text-anchor="middle" x="287.03" y="-474.12" font-family="Times,serif" font-size="14.00">anyio</text>
<text xml:space="preserve" text-anchor="middle" x="287.03" y="-457.62" font-family="Times,serif" font-size="14.00">4.9.0</text>
</g>
<!-- httpx&#45;&gt;anyio -->
<g id="edge24" class="edge">
<title>httpx&#45;&gt;anyio</title>
<path fill="none" stroke="black" d="M233.26,-555.24C242.7,-540.63 254.71,-522.01 264.99,-506.08"/>
<polygon fill="black" stroke="black" points="267.82,-508.14 270.3,-497.84 261.94,-504.35 267.82,-508.14"/>
<text xml:space="preserve" text-anchor="middle" x="265.97" y="-521.11" font-family="Times,serif" font-size="14.00">any</text>
</g>
<!-- certifi -->
<g id="node21" class="node">
<title>certifi</title>
<ellipse fill="none" stroke="black" cx="50.03" cy="-360.44" rx="50.03" ry="28.99"/>
<text xml:space="preserve" text-anchor="middle" x="50.03" y="-363.64" font-family="Times,serif" font-size="14.00">certifi</text>
<text xml:space="preserve" text-anchor="middle" x="50.03" y="-347.14" font-family="Times,serif" font-size="14.00">2025.4.26</text>
</g>
<!-- httpx&#45;&gt;certifi -->
<g id="edge25" class="edge">
<title>httpx&#45;&gt;certifi</title>
<path fill="none" stroke="black" d="M182.98,-572.14C147.66,-561.66 93.85,-539.92 66.53,-499.91 46.82,-471.05 44.09,-430.72 45.46,-401.02"/>
<polygon fill="black" stroke="black" points="48.93,-401.52 46.09,-391.32 41.95,-401.07 48.93,-401.52"/>
<text xml:space="preserve" text-anchor="middle" x="76.28" y="-465.87" font-family="Times,serif" font-size="14.00">any</text>
</g>
<!-- httpcore -->
<g id="node22" class="node">
<title>httpcore</title>
<ellipse fill="none" stroke="black" cx="138.03" cy="-470.92" rx="42.6" ry="28.99"/>
<text xml:space="preserve" text-anchor="middle" x="138.03" y="-474.12" font-family="Times,serif" font-size="14.00">httpcore</text>
<text xml:space="preserve" text-anchor="middle" x="138.03" y="-457.62" font-family="Times,serif" font-size="14.00">1.0.9</text>
</g>
<!-- httpx&#45;&gt;httpcore -->
<g id="edge26" class="edge">
<title>httpx&#45;&gt;httpcore</title>
<path fill="none" stroke="black" d="M192.55,-559.86C184.52,-552.37 175.96,-543.5 169.28,-534.41 163.66,-526.77 158.56,-517.97 154.18,-509.42"/>
<polygon fill="black" stroke="black" points="157.4,-508.04 149.88,-500.59 151.11,-511.11 157.4,-508.04"/>
<text xml:space="preserve" text-anchor="middle" x="186.15" y="-521.11" font-family="Times,serif" font-size="14.00">==1.*</text>
</g>
<!-- idna -->
<g id="node23" class="node">
<title>idna</title>
<ellipse fill="none" stroke="black" cx="236.03" cy="-360.44" rx="28.28" ry="28.99"/>
<text xml:space="preserve" text-anchor="middle" x="236.03" y="-363.64" font-family="Times,serif" font-size="14.00">idna</text>
<text xml:space="preserve" text-anchor="middle" x="236.03" y="-347.14" font-family="Times,serif" font-size="14.00">3.10</text>
</g>
<!-- httpx&#45;&gt;idna -->
<g id="edge27" class="edge">
<title>httpx&#45;&gt;idna</title>
<path fill="none" stroke="black" d="M218.2,-551.98C219.5,-523.96 221.89,-479.93 225.53,-441.93 226.83,-428.37 228.64,-413.57 230.4,-400.4"/>
<polygon fill="black" stroke="black" points="233.82,-401.21 231.71,-390.82 226.89,-400.26 233.82,-401.21"/>
<text xml:space="preserve" text-anchor="middle" x="235.28" y="-465.87" font-family="Times,serif" font-size="14.00">any</text>
</g>
<!-- wcwidth -->
<g id="node19" class="node">
<title>wcwidth</title>
<ellipse fill="none" stroke="black" cx="382.03" cy="-470.92" rx="44.19" ry="28.99"/>
<text xml:space="preserve" text-anchor="middle" x="382.03" y="-474.12" font-family="Times,serif" font-size="14.00">wcwidth</text>
<text xml:space="preserve" text-anchor="middle" x="382.03" y="-457.62" font-family="Times,serif" font-size="14.00">0.2.13</text>
</g>
<!-- prettytable&#45;&gt;wcwidth -->
<g id="edge23" class="edge">
<title>prettytable&#45;&gt;wcwidth</title>
<path fill="none" stroke="black" d="M607.29,-561.01C599.74,-557.73 591.75,-554.66 584.03,-552.41 527.39,-535.93 506.13,-559.04 452.53,-534.41 437.22,-527.38 422.82,-515.89 411.07,-504.67"/>
<polygon fill="black" stroke="black" points="413.63,-502.28 404.08,-497.68 408.68,-507.23 413.63,-502.28"/>
<text xml:space="preserve" text-anchor="middle" x="462.28" y="-521.11" font-family="Times,serif" font-size="14.00">any</text>
</g>
<!-- setuptools -->
<g id="node11" class="node">
<title>setuptools</title>
<ellipse fill="none" stroke="black" cx="494.03" cy="-470.92" rx="50.03" ry="28.99"/>
<text xml:space="preserve" text-anchor="middle" x="494.03" y="-474.12" font-family="Times,serif" font-size="14.00">setuptools</text>
<text xml:space="preserve" text-anchor="middle" x="494.03" y="-457.62" font-family="Times,serif" font-size="14.00">80.3.1</text>
</g>
<!-- pytablewriter&#45;&gt;setuptools -->
<g id="edge10" class="edge">
<title>pytablewriter&#45;&gt;setuptools</title>
<path fill="none" stroke="black" d="M732.58,-560.65C723.91,-557.44 714.79,-554.49 706.03,-552.41 662.82,-542.17 540.18,-563.96 507.03,-534.41 500.41,-528.52 496.66,-520.21 494.63,-511.57"/>
<polygon fill="black" stroke="black" points="498.09,-511.03 493.09,-501.69 491.17,-512.11 498.09,-511.03"/>
<text xml:space="preserve" text-anchor="middle" x="532.53" y="-521.11" font-family="Times,serif" font-size="14.00">&gt;=38.3.0</text>
</g>
<!-- dataproperty -->
<g id="node12" class="node">
<title>dataproperty</title>
<ellipse fill="none" stroke="black" cx="681.03" cy="-360.44" rx="62.23" ry="28.99"/>
<text xml:space="preserve" text-anchor="middle" x="681.03" y="-363.64" font-family="Times,serif" font-size="14.00">DataProperty</text>
<text xml:space="preserve" text-anchor="middle" x="681.03" y="-347.14" font-family="Times,serif" font-size="14.00">1.1.0</text>
</g>
<!-- pytablewriter&#45;&gt;dataproperty -->
<g id="edge11" class="edge">
<title>pytablewriter&#45;&gt;dataproperty</title>
<path fill="none" stroke="black" d="M730.83,-561.47C705.26,-548.31 675.75,-528.04 661.03,-499.91 644.75,-468.81 653.23,-428.69 663.7,-399.64"/>
<polygon fill="black" stroke="black" points="666.89,-401.1 667.22,-390.51 660.35,-398.58 666.89,-401.1"/>
<text xml:space="preserve" text-anchor="middle" x="692.53" y="-465.87" font-family="Times,serif" font-size="14.00">&gt;=1.1.0,&lt;2</text>
</g>
<!-- mbstrdecoder -->
<g id="node13" class="node">
<title>mbstrdecoder</title>
<ellipse fill="none" stroke="black" cx="661.03" cy="-139.47" rx="63.82" ry="28.99"/>
<text xml:space="preserve" text-anchor="middle" x="661.03" y="-142.67" font-family="Times,serif" font-size="14.00">mbstrdecoder</text>
<text xml:space="preserve" text-anchor="middle" x="661.03" y="-126.17" font-family="Times,serif" font-size="14.00">1.1.4</text>
</g>
<!-- pytablewriter&#45;&gt;mbstrdecoder -->
<g id="edge12" class="edge">
<title>pytablewriter&#45;&gt;mbstrdecoder</title>
<path fill="none" stroke="black" d="M730.7,-561.65C704.32,-550.76 675.45,-538.43 670.03,-534.41 602.08,-484.18 576.14,-468.76 547.03,-389.43 518.04,-310.45 583.62,-221.68 626.87,-174.41"/>
<polygon fill="black" stroke="black" points="629.35,-176.88 633.62,-167.19 624.23,-172.1 629.35,-176.88"/>
<text xml:space="preserve" text-anchor="middle" x="578.53" y="-355.39" font-family="Times,serif" font-size="14.00">&gt;=1.0.0,&lt;2</text>
</g>
<!-- pathvalidate -->
<g id="node14" class="node">
<title>pathvalidate</title>
<ellipse fill="none" stroke="black" cx="941.03" cy="-470.92" rx="57.98" ry="28.99"/>
<text xml:space="preserve" text-anchor="middle" x="941.03" y="-474.12" font-family="Times,serif" font-size="14.00">pathvalidate</text>
<text xml:space="preserve" text-anchor="middle" x="941.03" y="-457.62" font-family="Times,serif" font-size="14.00">3.2.3</text>
</g>
<!-- pytablewriter&#45;&gt;pathvalidate -->
<g id="edge13" class="edge">
<title>pytablewriter&#45;&gt;pathvalidate</title>
<path fill="none" stroke="black" d="M821.81,-560.81C837.24,-553.34 854.33,-544.24 869.03,-534.41 882.08,-525.69 895.34,-514.86 906.86,-504.67"/>
<polygon fill="black" stroke="black" points="909.1,-507.37 914.18,-498.07 904.41,-502.17 909.1,-507.37"/>
<text xml:space="preserve" text-anchor="middle" x="921.54" y="-521.11" font-family="Times,serif" font-size="14.00">&gt;=2.3.0,&lt;4</text>
</g>
<!-- tabledata -->
<g id="node15" class="node">
<title>tabledata</title>
<ellipse fill="none" stroke="black" cx="779.03" cy="-470.92" rx="45.79" ry="28.99"/>
<text xml:space="preserve" text-anchor="middle" x="779.03" y="-474.12" font-family="Times,serif" font-size="14.00">tabledata</text>
<text xml:space="preserve" text-anchor="middle" x="779.03" y="-457.62" font-family="Times,serif" font-size="14.00">1.3.4</text>
</g>
<!-- pytablewriter&#45;&gt;tabledata -->
<g id="edge14" class="edge">
<title>pytablewriter&#45;&gt;tabledata</title>
<path fill="none" stroke="black" d="M777.45,-552.1C777.61,-541.39 777.82,-529.09 778.03,-517.91 778.07,-515.85 778.11,-513.73 778.15,-511.59"/>
<polygon fill="black" stroke="black" points="781.65,-511.72 778.36,-501.65 774.65,-511.57 781.65,-511.72"/>
<text xml:space="preserve" text-anchor="middle" x="809.53" y="-521.11" font-family="Times,serif" font-size="14.00">&gt;=1.3.1,&lt;2</text>
</g>
<!-- tcolorpy -->
<g id="node16" class="node">
<title>tcolorpy</title>
<ellipse fill="none" stroke="black" cx="1060.03" cy="-470.92" rx="43.13" ry="28.99"/>
<text xml:space="preserve" text-anchor="middle" x="1060.03" y="-474.12" font-family="Times,serif" font-size="14.00">tcolorpy</text>
<text xml:space="preserve" text-anchor="middle" x="1060.03" y="-457.62" font-family="Times,serif" font-size="14.00">0.1.7</text>
</g>
<!-- pytablewriter&#45;&gt;tcolorpy -->
<g id="edge15" class="edge">
<title>pytablewriter&#45;&gt;tcolorpy</title>
<path fill="none" stroke="black" d="M821.99,-561.03C830.53,-557.82 839.47,-554.78 848.03,-552.41 895.35,-539.34 910.98,-551.46 957.03,-534.41 980.08,-525.88 1003.67,-512.01 1022.45,-499.51"/>
<polygon fill="black" stroke="black" points="1024.27,-502.51 1030.55,-493.98 1020.32,-496.72 1024.27,-502.51"/>
<text xml:space="preserve" text-anchor="middle" x="1021.45" y="-521.11" font-family="Times,serif" font-size="14.00">&gt;=0.0.5,&lt;1</text>
</g>
<!-- typepy -->
<g id="node17" class="node">
<title>typepy</title>
<ellipse fill="none" stroke="black" cx="779.03" cy="-249.96" rx="37.3" ry="28.99"/>
<text xml:space="preserve" text-anchor="middle" x="779.03" y="-253.16" font-family="Times,serif" font-size="14.00">typepy</text>
<text xml:space="preserve" text-anchor="middle" x="779.03" y="-236.66" font-family="Times,serif" font-size="14.00">1.3.4</text>
</g>
<!-- pytablewriter&#45;&gt;typepy -->
<g id="edge16" class="edge">
<title>pytablewriter&#45;&gt;typepy</title>
<path fill="none" stroke="black" d="M818.2,-559.26C827.27,-552.58 835.74,-544.31 841.03,-534.41 883.58,-454.84 876.72,-416.3 846.03,-331.45 839,-312.01 825,-293.96 811.6,-279.9"/>
<polygon fill="black" stroke="black" points="814.45,-277.8 804.91,-273.18 809.49,-282.74 814.45,-277.8"/>
<text xml:space="preserve" text-anchor="middle" x="902" y="-410.63" font-family="Times,serif" font-size="14.00">&gt;=1.3.2,&lt;2</text>
</g>
<!-- six -->
<g id="node10" class="node">
<title>six</title>
<ellipse fill="none" stroke="black" cx="1157.03" cy="-470.92" rx="35.71" ry="28.99"/>
<text xml:space="preserve" text-anchor="middle" x="1157.03" y="-474.12" font-family="Times,serif" font-size="14.00">six</text>
<text xml:space="preserve" text-anchor="middle" x="1157.03" y="-457.62" font-family="Times,serif" font-size="14.00">1.17.0</text>
</g>
<!-- python&#45;dateutil&#45;&gt;six -->
<g id="edge9" class="edge">
<title>python&#45;dateutil&#45;&gt;six</title>
<path fill="none" stroke="black" d="M976.93,-560.85C986.17,-557.7 995.82,-554.72 1005.03,-552.41 1058.19,-539.09 1082.9,-566.92 1127.03,-534.41 1135.26,-528.35 1141.34,-519.42 1145.78,-510.2"/>
<polygon fill="black" stroke="black" points="1148.91,-511.77 1149.54,-501.2 1142.46,-509.07 1148.91,-511.77"/>
<text xml:space="preserve" text-anchor="middle" x="1157.58" y="-521.11" font-family="Times,serif" font-size="14.00">&gt;=1.5</text>
</g>
<!-- text&#45;unidecode -->
<g id="node9" class="node">
<title>text&#45;unidecode</title>
<ellipse fill="none" stroke="black" cx="1279.03" cy="-470.92" rx="68.06" ry="28.99"/>
<text xml:space="preserve" text-anchor="middle" x="1279.03" y="-474.12" font-family="Times,serif" font-size="14.00">text&#45;unidecode</text>
<text xml:space="preserve" text-anchor="middle" x="1279.03" y="-457.62" font-family="Times,serif" font-size="14.00">1.3</text>
</g>
<!-- python&#45;slugify&#45;&gt;text&#45;unidecode -->
<g id="edge8" class="edge">
<title>python&#45;slugify&#45;&gt;text&#45;unidecode</title>
<path fill="none" stroke="black" d="M1132.05,-561.47C1156.72,-551.85 1183.59,-540.86 1195.03,-534.41 1210.34,-525.79 1226.07,-514.76 1239.71,-504.38"/>
<polygon fill="black" stroke="black" points="1241.84,-507.16 1247.6,-498.26 1237.55,-501.63 1241.84,-507.16"/>
<text xml:space="preserve" text-anchor="middle" x="1236.21" y="-521.11" font-family="Times,serif" font-size="14.00">&gt;=1.3</text>
</g>
<!-- dataproperty&#45;&gt;mbstrdecoder -->
<g id="edge21" class="edge">
<title>dataproperty&#45;&gt;mbstrdecoder</title>
<path fill="none" stroke="black" d="M676.67,-331.19C674.42,-315.78 671.78,-296.35 670.03,-278.95 666.68,-245.7 664.32,-207.84 662.86,-180.12"/>
<polygon fill="black" stroke="black" points="666.37,-180.22 662.36,-170.41 659.38,-180.58 666.37,-180.22"/>
<text xml:space="preserve" text-anchor="middle" x="701.53" y="-244.91" font-family="Times,serif" font-size="14.00">&gt;=1.0.0,&lt;2</text>
</g>
<!-- dataproperty&#45;&gt;typepy -->
<g id="edge22" class="edge">
<title>dataproperty&#45;&gt;typepy</title>
<path fill="none" stroke="black" d="M686.02,-331.21C689.14,-319.67 694.13,-306.75 702.03,-296.95 704.95,-293.32 722.01,-283.01 739.32,-273.07"/>
<polygon fill="black" stroke="black" points="740.61,-276.37 747.57,-268.38 737.14,-270.29 740.61,-276.37"/>
<text xml:space="preserve" text-anchor="middle" x="733.53" y="-300.15" font-family="Times,serif" font-size="14.00">&gt;=1.3.2,&lt;2</text>
</g>
<!-- chardet -->
<g id="node18" class="node">
<title>chardet</title>
<ellipse fill="none" stroke="black" cx="661.03" cy="-28.99" rx="39.42" ry="28.99"/>
<text xml:space="preserve" text-anchor="middle" x="661.03" y="-32.19" font-family="Times,serif" font-size="14.00">chardet</text>
<text xml:space="preserve" text-anchor="middle" x="661.03" y="-15.69" font-family="Times,serif" font-size="14.00">5.2.0</text>
</g>
<!-- mbstrdecoder&#45;&gt;chardet -->
<g id="edge18" class="edge">
<title>mbstrdecoder&#45;&gt;chardet</title>
<path fill="none" stroke="black" d="M661.03,-110.25C661.03,-97.92 661.03,-83.24 661.03,-69.82"/>
<polygon fill="black" stroke="black" points="664.53,-69.96 661.03,-59.96 657.53,-69.96 664.53,-69.96"/>
<text xml:space="preserve" text-anchor="middle" x="692.53" y="-79.18" font-family="Times,serif" font-size="14.00">&gt;=3.0.4,&lt;6</text>
</g>
<!-- tabledata&#45;&gt;dataproperty -->
<g id="edge19" class="edge">
<title>tabledata&#45;&gt;dataproperty</title>
<path fill="none" stroke="black" d="M741.37,-454.29C727.37,-446.88 712.38,-436.78 702.03,-423.93 696.54,-417.11 692.45,-408.79 689.42,-400.47"/>
<polygon fill="black" stroke="black" points="692.82,-399.6 686.47,-391.11 686.14,-401.7 692.82,-399.6"/>
<text xml:space="preserve" text-anchor="middle" x="733.53" y="-410.63" font-family="Times,serif" font-size="14.00">&gt;=1.0.1,&lt;2</text>
</g>
<!-- tabledata&#45;&gt;typepy -->
<g id="edge20" class="edge">
<title>tabledata&#45;&gt;typepy</title>
<path fill="none" stroke="black" d="M779.03,-441.74C779.03,-403.34 779.03,-334.35 779.03,-290.7"/>
<polygon fill="black" stroke="black" points="782.53,-290.89 779.03,-280.89 775.53,-290.89 782.53,-290.89"/>
<text xml:space="preserve" text-anchor="middle" x="810.53" y="-355.39" font-family="Times,serif" font-size="14.00">&gt;=1.2.0,&lt;2</text>
</g>
<!-- typepy&#45;&gt;mbstrdecoder -->
<g id="edge17" class="edge">
<title>typepy&#45;&gt;mbstrdecoder</title>
<path fill="none" stroke="black" d="M755.43,-227.26C738.75,-211.93 716.08,-191.09 697.13,-173.67"/>
<polygon fill="black" stroke="black" points="699.57,-171.16 689.84,-166.96 694.83,-176.31 699.57,-171.16"/>
<text xml:space="preserve" text-anchor="middle" x="758.59" y="-189.67" font-family="Times,serif" font-size="14.00">&gt;=1.0.0,&lt;2</text>
</g>
<!-- anyio&#45;&gt;idna -->
<g id="edge30" class="edge">
<title>anyio&#45;&gt;idna</title>
<path fill="none" stroke="black" d="M273.41,-444.29C270.02,-437.7 266.44,-430.59 263.28,-423.93 259.31,-415.59 255.23,-406.53 251.47,-397.95"/>
<polygon fill="black" stroke="black" points="254.71,-396.63 247.52,-388.84 248.29,-399.41 254.71,-396.63"/>
<text xml:space="preserve" text-anchor="middle" x="280.15" y="-410.63" font-family="Times,serif" font-size="14.00">&gt;=2.8</text>
</g>
<!-- sniffio -->
<g id="node25" class="node">
<title>sniffio</title>
<ellipse fill="none" stroke="black" cx="319.03" cy="-360.44" rx="36.24" ry="28.99"/>
<text xml:space="preserve" text-anchor="middle" x="319.03" y="-363.64" font-family="Times,serif" font-size="14.00">sniffio</text>
<text xml:space="preserve" text-anchor="middle" x="319.03" y="-347.14" font-family="Times,serif" font-size="14.00">1.3.1</text>
</g>
<!-- anyio&#45;&gt;sniffio -->
<g id="edge31" class="edge">
<title>anyio&#45;&gt;sniffio</title>
<path fill="none" stroke="black" d="M295.1,-442.55C298.9,-429.67 303.5,-414.09 307.64,-400.04"/>
<polygon fill="black" stroke="black" points="310.94,-401.22 310.42,-390.63 304.23,-399.24 310.94,-401.22"/>
<text xml:space="preserve" text-anchor="middle" x="321.82" y="-410.63" font-family="Times,serif" font-size="14.00">&gt;=1.1</text>
</g>
<!-- httpcore&#45;&gt;certifi -->
<g id="edge28" class="edge">
<title>httpcore&#45;&gt;certifi</title>
<path fill="none" stroke="black" d="M117.84,-445.03C105.94,-430.36 90.71,-411.59 77.7,-395.55"/>
<polygon fill="black" stroke="black" points="80.71,-393.7 71.69,-388.14 75.27,-398.11 80.71,-393.7"/>
<text xml:space="preserve" text-anchor="middle" x="109.05" y="-410.63" font-family="Times,serif" font-size="14.00">any</text>
</g>
<!-- h11 -->
<g id="node24" class="node">
<title>h11</title>
<ellipse fill="none" stroke="black" cx="154.03" cy="-360.44" rx="35.71" ry="28.99"/>
<text xml:space="preserve" text-anchor="middle" x="154.03" y="-363.64" font-family="Times,serif" font-size="14.00">h11</text>
<text xml:space="preserve" text-anchor="middle" x="154.03" y="-347.14" font-family="Times,serif" font-size="14.00">0.16.0</text>
</g>
<!-- httpcore&#45;&gt;h11 -->
<g id="edge29" class="edge">
<title>httpcore&#45;&gt;h11</title>
<path fill="none" stroke="black" d="M142.19,-441.7C144.04,-429.15 146.25,-414.15 148.26,-400.54"/>
<polygon fill="black" stroke="black" points="151.67,-401.42 149.67,-391.02 144.74,-400.4 151.67,-401.42"/>
<text xml:space="preserve" text-anchor="middle" x="167.24" y="-410.63" font-family="Times,serif" font-size="14.00">&gt;=0.16</text>
</g>
</g>
</svg>
